<svg width="75.000000" height="72.000000" viewBox="0 0 75 72" fill="none" xmlns="http://www.w3.org/2000/svg" xmlns:xlink="http://www.w3.org/1999/xlink">
	<desc>
			Created with Pixso.
	</desc>
	<defs/>
	<rect id="Icon=food" width="75.000000" height="72.000000" fill="#FFFFFF" fill-opacity="0"/>
	<path id="Advantage-icon/food" d="M6.1084 32.5L69.9729 32.5C69.9729 31.8999 70.0731 31.3 70.0731 30.6001L70.0731 29.3999C69.3713 13.7 55.3362 1 38.093 1C20.7495 1 6.71436 13.7 6.01257 29.5L6.01257 30.7L6.01257 30.7729C6.01233 31.3486 6.01221 31.9243 6.1084 32.5ZM38.093 4C53.7322 4 66.5643 15.3 67.1659 29.5L9.02014 29.5C9.62158 15.3999 22.4537 4 38.093 4ZM30.2734 13.2C31.3253 13.2 32.1781 12.3047 32.1781 11.2C32.1781 10.0955 31.3253 9.19995 30.2734 9.19995C29.2214 9.19995 28.3687 10.0955 28.3687 11.2C28.3687 12.3047 29.2214 13.2 30.2734 13.2ZM47.7172 11.2C47.7172 12.3047 46.8643 13.2 45.8124 13.2C44.7604 13.2 43.9076 12.3047 43.9076 11.2C43.9076 10.0955 44.7604 9.19995 45.8124 9.19995C46.8643 9.19995 47.7172 10.0955 47.7172 11.2ZM39.9978 16.3C39.9978 17.4045 39.145 18.3 38.093 18.3C37.041 18.3 36.1882 17.4045 36.1882 16.3C36.1882 15.1953 37.041 14.3 38.093 14.3C39.145 14.3 39.9978 15.1953 39.9978 16.3ZM22.0527 43.5L16.6392 39.3999L11.3259 43.5L5.11035 38.8L6.81458 36.3L11.3259 39.7L16.6392 35.6001L22.0527 39.7L27.3661 35.6001L32.6794 39.7L37.9927 35.6001L43.4062 39.7L48.7196 35.6001L54.033 39.7L59.4465 35.6001L64.7599 39.7L69.2711 36.3L70.9755 38.8L64.7599 43.5L59.4465 39.3999L54.033 43.5L48.7196 39.3999L43.4062 43.5L37.9927 39.3999L32.6794 43.5L27.3661 39.3999L22.0527 43.5ZM71.0757 47.7L5.11035 47.7C2.80457 47.7 1 49.6001 1 52L1 55.5C1 57.8999 2.90479 59.8 5.11035 59.8L6.01257 59.8L6.01257 60.8999C6.01257 66.3999 10.3234 71 15.6367 71L60.3488 71C65.6621 71 69.9729 66.5 69.9729 60.8999L69.9729 59.8L70.8751 59.8C73.1809 59.8 74.9855 57.8999 74.9855 55.5L74.9855 52C75.186 49.7 73.2812 47.7 71.0757 47.7ZM72.2787 55.5C72.2787 56.2 71.6771 56.8 71.0757 56.8L5.01001 56.8C4.30835 56.8 3.80701 56.2 3.80701 55.5L3.80701 52C3.80701 51.3 4.40857 50.7 5.01001 50.7L70.9755 50.7C71.6772 50.7 72.1785 51.3 72.1785 52C72.2787 52 72.2787 55.5 72.2787 55.5ZM67.1659 60.8999C67.1659 64.8 64.1583 67.8999 60.449 67.8999L15.6367 67.8999C11.9274 67.8999 8.9198 64.7 8.9198 60.8999L8.9198 59.8L67.1659 59.8L67.1659 60.8999Z" fill="#83B3D3" fill-opacity="1.000000" fill-rule="evenodd"/>
</svg>
