<svg width="75.000000" height="72.000000" viewBox="0 0 75 72" fill="none" xmlns="http://www.w3.org/2000/svg" xmlns:xlink="http://www.w3.org/1999/xlink">
	<desc>
			Created with Pixso.
	</desc>
	<defs/>
	<path d="M72.8916 39.3L75 37.2L65.0603 27.3L65.0603 0L51.1044 0L51.1044 13.6001L37.4498 0L0 37.2L2.1084 39.3L9.93982 31.5L9.93982 69.1001L5.92371 69.1001L5.92371 72L70.0803 72L70.0803 69.1001L64.9598 69.1001L64.9598 31.5L72.8916 39.3ZM62.0482 24.3999L54.1165 16.5L54.1165 2.8999L62.0482 2.8999L62.0482 24.3999ZM62.0482 69.1001L12.8514 69.1001L12.8514 28.5L37.4498 4.1001L62.0482 28.5L62.0482 69.1001ZM29.8192 27.1001C29.8192 31.3999 33.3334 34.8 37.5502 34.8C41.8674 34.8 45.3815 31.3 45.3815 27.1001C45.3815 22.8 41.8674 19.3999 37.5502 19.3999C33.3334 19.3999 29.8192 22.8 29.8192 27.1001ZM37.6506 22.1001C40.3615 22.1001 42.6707 24.3 42.6707 27C42.6707 29.7 40.4618 31.8999 37.6506 31.8999C34.9397 31.8999 32.6305 29.7 32.6305 27C32.6305 24.3 34.8394 22.1001 37.6506 22.1001ZM19.9799 41.2L16.9679 41.2L16.9679 45.1001L19.9799 45.1001L19.9799 41.2ZM25.9036 41.2L22.8916 41.2L22.8916 45.1001L25.9036 45.1001L25.9036 41.2ZM29.6185 65L45.6827 65L45.6827 41.2L29.6185 41.2L29.6185 65ZM52.0081 41.2L48.996 41.2L48.996 45.1001L52.0081 45.1001L52.0081 41.2ZM57.9318 41.2L54.9197 41.2L54.9197 45.1001L57.9318 45.1001L57.9318 41.2ZM32.5302 44.1001L42.6707 44.1001L42.6707 62.1001L32.5302 62.1001L32.5302 44.1001ZM19.9799 47.2L16.9679 47.2L16.9679 51.1001L19.9799 51.1001L19.9799 47.2ZM25.9036 47.2L22.8916 47.2L22.8916 51.1001L25.9036 51.1001L25.9036 47.2ZM52.0081 47.2L48.996 47.2L48.996 51.1001L52.0081 51.1001L52.0081 47.2ZM57.9318 47.2L54.9197 47.2L54.9197 51.1001L57.9318 51.1001L57.9318 47.2Z" fill="#83B3D3" fill-opacity="1.000000" fill-rule="evenodd"/>
</svg>
