<svg width="24.000488" height="14.000000" viewBox="0 0 24.0005 14" fill="none" xmlns="http://www.w3.org/2000/svg" xmlns:xlink="http://www.w3.org/1999/xlink">
	<defs/>
	<path d="M23.45 0.948242C23.616 0.401855 23.45 0 22.655 0L20.03 0C19.3621 0 19.054 0.347168 18.887 0.72998C18.887 0.72998 17.552 3.92578 15.661 6.00195C15.049 6.604 14.771 6.79492 14.437 6.79492C14.27 6.79492 14.019 6.604 14.019 6.05713L14.019 0.948242C14.019 0.291992 13.835 0 13.2791 0L9.151 0C8.73401 0 8.48303 0.304199 8.48303 0.592773C8.48303 1.21387 9.42896 1.35791 9.526 3.10596L9.526 6.90381C9.526 7.73682 9.37305 7.88818 9.03894 7.88818C8.14905 7.88818 5.98401 4.67676 4.69897 1.00293C4.44995 0.288086 4.198 0 3.52698 0L0.900024 0C0.150024 0 0 0.347168 0 0.72998C0 1.41211 0.890015 4.7998 4.14502 9.28076C6.31494 12.3408 9.37 14 12.153 14C13.822 14 14.028 13.6318 14.028 12.9971L14.028 10.6841C14.028 9.94678 14.186 9.7998 14.715 9.7998C15.105 9.7998 15.772 9.99219 17.33 11.4668C19.11 13.2158 19.403 14 20.405 14L23.03 14C23.78 14 24.156 13.6318 23.9399 12.9038C23.702 12.1802 22.8521 11.1289 21.725 9.88184C21.113 9.17188 20.1949 8.40723 19.916 8.02393C19.527 7.5332 19.6381 7.31396 19.916 6.87695C19.916 6.87695 23.116 2.45117 23.449 0.948242L23.45 0.948242Z" fill="#83B3D3" fill-opacity="1.000000" fill-rule="evenodd"/>
</svg>
