<svg width="90" height="37" fill="none" xmlns="http://www.w3.org/2000/svg"><defs><clipPath id="a"><path transform="translate(0 10)" fill="#fff" fill-opacity="0" d="M0 0h18v17H0z"/></clipPath><clipPath id="b"><path transform="translate(24 10)" fill="#fff" fill-opacity="0" d="M0 0h18v17H0z"/></clipPath><clipPath id="c"><path transform="translate(48 10)" fill="#fff" fill-opacity="0" d="M0 0h18v17H0z"/></clipPath><clipPath id="d"><path transform="translate(72 10)" fill="#fff" fill-opacity="0" d="M0 0h18v17H0z"/></clipPath></defs><path fill="none" d="M0 10h18v17H0z"/><g clip-path="url(#a)"><path d="m9 10 2.1 6.5H18l-5.6 4 2.2 6.5L9 23l-5.6 4 2.19-6.5-5.59-4h6.9L9 10Z" fill="#83B3D3"/></g><path fill="none" d="M24 10h18v17H24z"/><g clip-path="url(#b)"><path d="m33 10 2.09 6.5H42l-5.6 4 2.19 6.5L33 23l-5.6 4 2.2-6.5-5.6-4h6.9L33 10Z" fill="#83B3D3"/></g><path fill="none" d="M48 10h18v17H48z"/><g clip-path="url(#c)"><path d="m57 10 2.1 6.5H66l-5.6 4 2.2 6.5-5.6-4-5.6 4 2.2-6.5-5.6-4h6.9L57 10Z" fill="#83B3D3"/></g><path fill="none" d="M72 10h18v17H72z"/><g clip-path="url(#d)"><path d="m81 10 2.1 6.5H90l-5.6 4 2.2 6.5-5.6-4-5.6 4 2.2-6.5-5.6-4h6.9L81 10Z" fill="#83B3D3"/></g></svg>