<svg width="75.000000" height="76.000000" viewBox="0 0 75 76" fill="none" xmlns="http://www.w3.org/2000/svg" xmlns:xlink="http://www.w3.org/1999/xlink">
	<desc>
			Created with Pixso.
	</desc>
	<defs/>
	<rect id="Icon=souvenir" width="75.000000" height="72.000000" transform="translate(0.000000 2.000000)" fill="#FFFFFF" fill-opacity="0"/>
	<path id="Vector" d="M67.1001 22.4624L67 22.4624L42.3 22.4624C56.1001 15.5576 57.2 11.1545 56.7 8.75293C55.5 4.75 51 1.74805 46.7 3.34912C41.1001 5.45068 39.6001 13.7563 38.1001 19.7605C36.1001 13.6562 34.3 5.95093 29.8999 2.0481C28.6001 0.94751 26.8 -0.253418 24.1001 0.046875C20.1001 0.447021 14.3 5.45068 16.6001 11.0544C18.8999 16.4583 26.3 19.8606 31.2 22.5625L9.19995 22.5625L8.8999 22.5625C7.30005 22.5625 6 23.8635 6 25.4646L6 36.7725C6 38.3735 7.30005 39.6746 8.8999 39.6746L9.19995 39.6746L9.19995 72.9978L9.19995 75.3997L9.19995 76L67 76L67 75.4998L67 72.9978L67 39.5745L67.1001 39.5745C68.7 39.5745 70 38.2734 70 36.6724L70 25.3645C70 23.7634 68.7 22.4624 67.1001 22.4624ZM48.3999 5.85083C50.5 5.55054 53.3999 7.15186 53.7 9.05298C54.1001 11.855 50.3 14.3567 48.6001 15.4575C46.1001 17.1587 43.7 18.0593 41.3 19.5605C42.2 15.8579 43.8 6.55127 48.3999 5.85083ZM25.5 15.8579C23.3 14.3567 19 11.4548 19.1001 8.05249C19.2 4.44995 24.8 1.44775 27.8999 4.14966C31.8 7.552 33.6001 15.2573 35 20.7612C31.8 19.2603 28.7 17.9592 25.5 15.8579ZM31.5 72.9978L12.1001 72.9978L12.1001 39.5745L31.5 39.5745L31.5 72.9978ZM31.5 36.4724L9 36.4724L9 25.4646L31.5 25.4646L31.5 36.4724ZM41.7 36.4724L41.7 39.4744L41.7 72.9978L34.5 72.9978L34.5 39.5745L34.5 36.5723L34.5 25.5647L41.7 25.5647L41.7 36.4724ZM64 72.9978L44.6001 72.9978L44.6001 39.5745L64 39.5745L64 72.9978ZM66.8999 36.4724L44.6001 36.4724L44.6001 25.4646L66.8999 25.4646L66.8999 36.4724Z" fill="#83B3D3" fill-opacity="1.000000" fill-rule="nonzero"/>
</svg>
