<svg width="20" height="20" fill="none" xmlns="http://www.w3.org/2000/svg"><defs><clipPath id="a"><path fill="#fff" fill-opacity="0" d="M0 0h20v20H0z"/></clipPath></defs><g clip-path="url(#a)" opacity=".3"><path d="M17 4h-2V2h-1v2H6V2H5v2H3c-.61 0-1 .4-1 1v11c0 .5.39 1 1 1h14c.5 0 1-.5 1-1V5c0-.6-.5-1-1-1ZM3 8V5h2v2h1V5h8v2h1V5h2v3H3Zm14 8H3V9h14v7ZM5.5 12c.3 0 .5-.2.5-.5s-.2-.5-.5-.5c-.31 0-.5.2-.5.5s.19.5.5.5Zm2.25 0c.3 0 .5-.2.5-.5s-.2-.5-.5-.5c-.31 0-.5.2-.5.5s.19.5.5.5ZM10 12c.3 0 .5-.2.5-.5s-.2-.5-.5-.5c-.31 0-.5.2-.5.5s.19.5.5.5Zm2.25 0c.3 0 .5-.2.5-.5s-.2-.5-.5-.5-.5.2-.5.5.2.5.5.5Zm2.25 0c.3 0 .5-.2.5-.5s-.2-.5-.5-.5-.5.2-.5.5.2.5.5.5Zm-9 1c-.31 0-.5.2-.5.5s.19.5.5.5c.3 0 .5-.2.5-.5s-.2-.5-.5-.5Zm2.25 0c-.31 0-.5.2-.5.5s.19.5.5.5c.3 0 .5-.2.5-.5s-.2-.5-.5-.5ZM10 13c-.31 0-.5.2-.5.5s.19.5.5.5c.3 0 .5-.2.5-.5s-.2-.5-.5-.5Zm2.25 0c-.3 0-.5.2-.5.5s.2.5.5.5.5-.2.5-.5-.2-.5-.5-.5Zm2.25 0c-.3 0-.5.2-.5.5s.2.5.5.5.5-.2.5-.5-.2-.5-.5-.5Z" fill="#000" fill-rule="evenodd"/></g></svg>