<svg width="20.000000" height="20.000000" viewBox="0 0 20 20" fill="none" xmlns="http://www.w3.org/2000/svg" xmlns:xlink="http://www.w3.org/1999/xlink">
	<defs>
		<clipPath id="clip28_448">
			<rect id="icons/search" width="20.000000" height="20.000000" fill="white" fill-opacity="0"/>
		</clipPath>
	</defs>
	<g clip-path="url(#clip28_448)">
		<path id="Vector" d="M19.5 18.0083L15.8 14.3287C16.8 13.0359 17.5 11.3453 17.5 9.4558C17.5 5.08011 13.8999 1.5 9.5 1.5C5.1001 1.5 1.5 5.17956 1.5 9.55525C1.5 13.9309 5.1001 17.511 9.5 17.511C11.3 17.511 13 16.9144 14.3999 15.8204L18.1001 19.5L19.5 18.0083ZM9.5 15.5221C6.19995 15.5221 3.5 12.837 3.5 9.55525C3.5 6.27348 6.19995 3.5884 9.5 3.5884C12.8 3.5884 15.5 6.27348 15.5 9.55525C15.5 12.837 12.8 15.5221 9.5 15.5221Z" fill="#000000" fill-opacity="1.000000" fill-rule="nonzero"/>
	</g>
</svg>
