<svg width="75" height="72" fill="none" xmlns="http://www.w3.org/2000/svg"><path d="m72.39 39.3 2.11-2.1-9.94-9.9V0H50.6v13.6L36.94 0-.5 37.2l2.1 2.1 7.83-7.8v37.6H5.42V72h64.16v-2.9h-5.13V31.5l7.94 7.8ZM61.54 24.39l-7.93-7.89V2.89h7.93v21.5Zm0 44.71H12.35V28.5L36.94 4.1l24.6 24.4v40.6Zm-32.23-42c0 4.29 3.52 7.7 7.74 7.7 4.31 0 7.83-3.5 7.83-7.7 0-4.3-3.52-7.71-7.83-7.71-4.22 0-7.74 3.41-7.74 7.71Zm7.84-5c2.71 0 5.02 2.2 5.02 4.9s-2.21 4.89-5.02 4.89c-2.72 0-5.02-2.19-5.02-4.89 0-2.7 2.2-4.9 5.02-4.9ZM19.47 41.2h-3.01v3.9h3.01v-3.9Zm5.93 0h-3.01v3.9h3.01v-3.9ZM29.11 65h16.07V41.2H29.11V65ZM51.5 41.2h-3.01v3.9h3.01v-3.9Zm5.93 0h-3.02v3.9h3.02v-3.9Zm-25.4 2.9h10.14v18H32.03v-18Zm-12.56 3.1h-3.01v3.9h3.01v-3.9Zm5.93 0h-3.01v3.9h3.01v-3.9Zm26.1 0h-3.01v3.9h3.01v-3.9Zm5.93 0h-3.02v3.9h3.02v-3.9Z" fill="#83B3D3" fill-rule="evenodd"/></svg>