<svg width="115.000000" height="33.000000" viewBox="0 0 115 33" fill="none" xmlns="http://www.w3.org/2000/svg" xmlns:xlink="http://www.w3.org/1999/xlink">
	<desc>
			Created with Pixso.
	</desc>
	<defs>
		<clipPath id="clip33515_1190">
			<rect id="logo_htmlacademy" width="115.000000" height="33.000000" fill="white" fill-opacity="0"/>
		</clipPath>
	</defs>
	<rect id="logo_htmlacademy" width="115.000000" height="33.000000" fill="#FFFFFF" fill-opacity="0"/>
	<g clip-path="url(#clip33515_1190)">
		<rect id="Logo" width="114.900002" height="32.900002" fill="#FFFFFF" fill-opacity="0"/>
		<path id="HTML Academy" d="M11.6001 4.5C10 4.5 8.80005 5.19995 8 6.19995L7.8999 6.19995L7.8999 0L5.8999 0L5.8999 15.5L7.8999 15.5L7.8999 10.2C7.8999 8.1001 9.19995 6.6001 11.2 6.6001C13 6.6001 14.1001 8 14.1001 9.80005L14.1001 15.5L16.1001 15.5L16.1001 9.3999C16.1025 9.32446 16.1038 9.24951 16.1038 9.17529C16.1038 6.30542 14.2319 4.5 11.6001 4.5ZM47.8 12.7C47.8 14.3999 48.8 15.3999 50.6001 15.3999L52.6001 15.3999L52.6001 13.3999L50.8999 13.3999C50.2 13.3999 49.8 13 49.8 12.3L49.8 0L47.8 0L47.8 12.7ZM26.6001 4.80005L21.8 4.80005L21.8 1.1001L19.8 1.1001L19.8 4.8999L17.8999 4.8999L17.8999 6.8999L19.8 6.8999L19.8 12.8999C19.8 14.6001 20.8 15.6001 22.5 15.6001L26.6001 15.6001L26.6001 13.6001L22.8999 13.6001C22.2 13.6001 21.8 13.2 21.8 12.5L21.8 6.80005L26.6001 6.80005L26.6001 4.80005ZM41.1001 4.6001C39.5 4.6001 38.2 5.3999 37.6001 6.69995L37.5 6.69995C36.8999 5.5 35.7 4.6001 34.1001 4.6001C32.7 4.6001 31.6001 5.3999 31 6.3999L30.8999 6.3999L30.8999 4.80005L29 4.80005L29 15.3999L31 15.3999L31 10C31 8 32 6.5 33.6001 6.5C35.1001 6.5 36 7.5 36 9.1001L36 15.3999L38 15.3999L38 9.80005C38 7.3999 39.3999 6.5 40.6001 6.5C42.1001 6.5 43 7.5 43 9.1001L43 15.3999L45 15.3999L45 8.8999C45.0032 8.82153 45.0046 8.74341 45.0046 8.66626C45.0046 6.28857 43.5215 4.6001 41.1001 4.6001ZM0 12.8999L0 15.5L2.5 15.5L2.5 12.8999L0 12.8999ZM68.7 19.8C67.8 18.7 66.5 17.8999 64.8 17.8999C61.7 17.8999 59.3999 20.2 59.3999 23.5C59.3999 26.8 61.6001 29.1001 64.8 29.1001C66.5 29.1001 67.8 28.3 68.6001 27.3L68.7 27.3L68.7 28.8L70.7 28.8L70.7 13.3999L68.7 13.3999L68.7 19.8ZM28.8999 19.7C28 18.6001 26.7 17.8999 25 17.8999C21.8999 17.8999 19.6001 20.2 19.6001 23.5C19.6001 26.8 21.8999 29.1001 25 29.1001C26.8 29.1001 28 28.3 28.8 27.2L28.8999 27.2L28.8999 28.8L30.8999 28.8L30.8999 18.2L28.8999 18.2L28.8999 19.7ZM44.2 22C43.7 19.6001 41.6001 17.8999 38.8 17.8999C35.3999 17.8999 33.2 20.3999 33.2 23.5C33.2 26.6001 35.3999 29.1001 38.8 29.1001C41.6001 29.1001 43.7 27.3 44.2 24.8999L42.1001 24.8999C41.7 26.2 40.3999 27.2 38.8 27.2C36.6001 27.2 35.2 25.6001 35.2 23.6001C35.2 21.6001 36.6001 20 38.8 20C40.3999 20 41.6001 21 42.1001 22.2L44.2 22.2L44.2 22ZM55.1001 19.7C54.2 18.6001 52.8999 17.8999 51.2 17.8999C48.1001 17.8999 45.8 20.2 45.8 23.5C45.8 26.8 48.1001 29.1001 51.2 29.1001C53 29.1001 54.2 28.3 55 27.2L55.1001 27.2L55.1001 28.8L57.1001 28.8L57.1001 18.2L55.1001 18.2L55.1001 19.7ZM78.3 17.8999C75 17.8999 72.8 20.3999 72.8 23.5C72.8 26.5 74.8999 29.1001 78.3 29.1001C80.8 29.1001 82.8 27.8 83.5 25.5L81.3999 25.5C80.8999 26.5 79.8 27.1001 78.3999 27.1001C76.5 27.1001 75.1001 25.8 75 24.2L83.8 24.2C83.8083 24.0486 83.8125 23.8987 83.8125 23.7505C83.8125 20.3777 81.6528 17.8999 78.3 17.8999ZM98.2 17.8999C96.6001 17.8999 95.3 18.7 94.6001 19.8999L94.5 19.8999C93.8999 18.7 92.7 17.8999 91.1001 17.8999C89.7 17.8999 88.6001 18.6001 88 19.7L88 18.2L86.1001 18.2L86.1001 28.8L88.1001 28.8L88.1001 23.3999C88.1001 21.3999 89.1001 20 90.7 19.8999C92.2 19.8999 93.1001 20.8999 93.1001 22.5L93.1001 28.8L95.1001 28.8L95.1001 23.2C95.1001 20.8 96.5 19.8999 97.7 19.8999C99.2 19.8999 100.1 20.8999 100.1 22.5L100.1 28.8L102.1 28.8L102.1 22.3C102.103 22.2183 102.105 22.1372 102.105 22.0571C102.105 19.5886 100.621 17.8999 98.2 17.8999ZM109.4 27L105.8 18.1001L103.6 18.1001L108.4 29.7C108.1 30.6001 107.7 30.8999 106.7 30.8999L104.2 30.8999L104.2 32.8999L106.7 32.8999C108.5 32.8999 109.5 32.1001 110.2 30.3L114.9 18.1001L112.8 18.1001L109.4 27ZM78.3 19.8C80 19.8 81.3 20.8 81.6001 22.3999L75.1001 22.3999C75.3999 20.8999 76.6001 19.8 78.3 19.8ZM25.3 27.1001C23.1001 27.1001 21.7 25.5 21.7 23.5C21.7 21.5 23.1001 19.8999 25.3 19.8999C27.5 19.8999 28.8999 21.5 28.8999 23.5C28.8999 25.3999 27.5 27.1001 25.3 27.1001ZM51.5 27.1001C49.3 27.1001 47.8999 25.5 47.8999 23.5C47.8999 21.5 49.3 19.8999 51.5 19.8999C53.7 19.8999 55.1001 21.5 55.1001 23.5C55.1001 25.3999 53.6001 27.1001 51.5 27.1001ZM65.1001 27.1001C62.8999 27.1001 61.5 25.5 61.5 23.5C61.5 21.5 62.8999 19.8999 65.1001 19.8999C67.3 19.8999 68.7 21.5 68.7 23.5C68.6001 25.5 67.2 27.1001 65.1001 27.1001Z" fill="#000000" fill-opacity="1.000000" fill-rule="evenodd"/>
	</g>
</svg>
