<svg width="140.000000" height="70.000000" viewBox="0 0 140 70" fill="none" xmlns="http://www.w3.org/2000/svg" xmlns:xlink="http://www.w3.org/1999/xlink">
	<desc>
			Created with Pixso.
	</desc>
	<defs>
		<clipPath id="clip3_469">
			<rect id="logo" width="140.000000" height="70.000000" fill="white" fill-opacity="0"/>
		</clipPath>
	</defs>
	<rect id="Frame 19" width="138.000000" height="64.000000" fill="#FFFFFF" fill-opacity="0"/>
	<rect id="logo" width="140.000000" height="70.000000" fill="#FFFFFF" fill-opacity="0"/>
	<g clip-path="url(#clip3_469)">
		<path id="Vector" d="M140 0L0 0L60.3623 65.7C65.6377 71.5 74.3623 71.5 79.6377 65.7L140 0Z" fill="#81B3D3" fill-opacity="1.000000" fill-rule="nonzero"/>
		<path id="Vector" d="M37.2318 0.5L69.797 38.4L102.261 0.7L37.2318 0.5Z" fill="#23A9E1" fill-opacity="1.000000" fill-rule="nonzero"/>
		<path id="Vector" d="M61.9856 14.7L79.5363 14.7C78.2175 13.9 75.0725 10.1 73.4493 11.5C73.3479 11.6 68.4784 5.80001 65.3334 8.60001C62.5942 11.1 61.2754 8.30001 58.2319 10.2C54.5798 12.6 60.261 13.9 61.9856 14.7ZM89.0725 11.2L79.1305 11.3C83.087 6.80001 84.8116 7.30001 89.0725 11.2Z" fill="#FFFFFF" fill-opacity="1.000000" fill-rule="nonzero"/>
		<path id="Vector" d="M99.0145 3.6L99.0145 1.2L101.145 1.2L99.0145 3.6ZM49.1014 13C49.2029 13.1 51.5363 10.6 55.2898 8.1C58.7391 5.8 64.0145 3.2 69.8986 3.2C75.7826 3.2 81.1594 5.9 84.6086 8.2C88.3623 10.6 90.6957 13 90.7971 13.1L88.2609 16.1C83.6957 16.7 80.4492 20 75.9855 19.3C73.7537 18.9 73.6522 17.7 73.0435 16.4C72.5363 15.4 71.7246 15.6 70.7101 15.2C69.7971 14.8 69.1884 14.1 67.2609 14.5C65.6377 14.9 65.4348 17.4 63.3043 17.3C62.1884 17.2 62.0869 15.7 60.4637 13.7C56.3043 8.8 52.5107 9.41045 49.873 13.9104L49.1014 13ZM40.5797 1.2L40.5797 3.1L38.9565 1.2L40.5797 1.2ZM95.2609 1.2L98.5072 1.2L98.5072 4.2L95.2609 8L95.2609 1.2ZM91.1014 12.6L91.1014 1.2L94.6522 1.2L94.6522 8.6L91.1014 12.6ZM90.5942 2.2L90.5942 12.1C89.4783 11 88.2609 10 86.942 9.1L90.5942 2.2ZM86.4348 1.9L86.4348 8.7C85.9275 8.4 85.5217 8 84.9131 7.7C84.2029 7.3 83.4928 6.8 82.6812 6.4L86.4348 1.9ZM81.9711 1.7L81.9711 6C80.9565 5.5 79.8406 5 78.826 4.5L81.9711 1.7ZM82.5797 1.2L86.3334 1.2L82.5797 5.8L82.5797 1.2ZM86.942 1.2L90.5942 1.2L86.942 8.3L86.942 1.2ZM78.0145 1.2L81.9711 1.2L78.4203 4.3C78.3188 4.3 78.2174 4.2 78.116 4.2L78.0145 1.2ZM77.5072 1.6L77.5072 4C76.4928 3.6 75.4783 3.3 74.3623 3.1L77.5072 1.6ZM73.2463 1.6L73.2463 2.9C72.5363 2.8 71.826 2.7 71.0145 2.6L73.2463 1.6ZM66.3478 1.6L68.5797 2.6C67.7681 2.6 67.058 2.7 66.3478 2.9L66.3478 1.6ZM62.1884 1.6L65.3334 3.1C64.2174 3.3 63.2029 3.6 62.1884 4L62.1884 1.6ZM65.8406 2.8L62.4928 1.2L65.8406 1.2L65.8406 2.8ZM69.3914 2.4L66.5507 1.1L69.3914 1.1L69.3914 2.4ZM70.1014 1.2L73.0435 1.2L70.1014 2.5L70.1014 1.2ZM73.8551 1.2L77.1014 1.2L73.8551 2.8L73.8551 1.2ZM61.2754 4.3L57.7246 1.2L61.6812 1.2L61.6812 4.2L61.2754 4.3ZM57.6232 1.7L60.7681 4.4C59.6522 4.8 58.6377 5.3 57.6232 5.9L57.6232 1.7ZM53.2609 1.9L56.9131 6.4C55.5942 7.1 54.3768 7.9 53.2609 8.8L53.2609 1.9ZM49 2.2L52.6522 9.2C51.3334 10.2 50.116 11.2 49 12.4L49 2.2ZM52.7537 8.2L49.1014 1.1L52.7537 1.1L52.7537 8.2ZM57.116 5.7L53.3623 1.1L57.116 1.1L57.116 5.7ZM44.3334 7.5L41.0869 3.7L41.0869 1.2L44.3334 1.2L44.3334 7.5ZM44.942 1.2L48.4928 1.2L48.4928 12.4L44.942 8.2L44.942 1.2ZM36.5217 0L36.5217 14.6L70 54.5L103.478 15L103.478 0L36.5217 0Z" fill="#491213" fill-opacity="1.000000" fill-rule="nonzero"/>
		<path id="Vector" d="M67.3623 46L70 41.8L72.6377 46L70 50.2L67.3623 46Z" fill="#23A9E1" fill-opacity="1.000000" fill-rule="nonzero"/>
		<path id="Vector" d="M75.2753 30.6C71.826 28.6 72.6376 27.1 75.4781 25.7C76.9999 25 80.3478 22.3 81.6666 23.2L75.2753 30.6ZM72.942 33.1C70.913 33 68.5796 32.7 66.5507 33.2C67.7681 33.5 70.8115 34.4 67.9709 35.1C68.9855 36.5 70.6086 36.4 71.6232 35.2C71.2173 35 70.913 34.7 70.6086 34.5C71.7246 34.2 72.739 33.6 72.942 33.1ZM74.1593 31.5C73.2463 30.7 72.2318 30.7 71.4202 31.5C70.2029 29.4 65.942 30.1 63.913 29.8C65.0289 32.4 73.6521 32.9 74.1593 31.5ZM67.2607 29.3C65.6376 28.8 60.3623 28.9 63.8115 27.5C64.9275 27.1 70.6086 27.6 67.2607 29.3ZM69.2898 26.3C68.7826 25.2 69.6956 23.9 71.0144 24.9C72.2318 25.7 70.4058 26.9 69.2898 26.3ZM66.3478 26.4C64.0144 27.1 60.9709 25.6 64.7246 24.9C67.0579 24.4 69.4927 25.4 66.3478 26.4ZM63.7101 20.2C63.2029 21.8 62.1884 22.1 62.2898 20.2C62.3912 17.9 63.913 18.5 65.5361 17.6C66.855 16.9 67.5652 14.2 69.8984 15.8C70.913 16.5 72.1304 15.9 72.4347 17C72.4347 16.9 69.4927 23.7 71.1158 23.7C67.8695 23.7 69.2898 19.9 70.5072 17.3C69.2898 17.9 67.3623 21.6 68.9855 22.3C68.1738 23.4 65.5361 24.9 64.2173 23.8C63.1013 22.8 63.7101 21.5 63.7101 20.2ZM59.6521 23C53.9709 23 57.826 14.4 59.7535 14.9C61.9855 15.6 61.681 23.1 59.6521 23ZM53.3623 14.8C50.7246 14.7 51.8405 12.2 53.6666 11.7C55.3912 11.2 58.942 12.8 60.1593 13.9C58.3333 14.5 55.9999 14.4 53.9709 14.5C53.7681 12.5 53.2607 13.2 53.3623 14.8Z" fill="#DC6243" fill-opacity="1.000000" fill-rule="nonzero"/>
		<path id="Vector" d="M72.8406 25.8C69.8986 22.8 77.203 23.1 78.4203 22C79.2319 22.3 85.5219 16.6 87.0436 17C85.9276 18.3 83.5942 22.3 81.9711 22.3C80.6522 22.3 79.3334 22.1 78.3188 23C76.7971 24.4 74.3624 25.1 72.8406 25.8Z" fill="#F49774" fill-opacity="1.000000" fill-rule="nonzero"/>
		<path id="Vector" d="M73.7537 22.2C72.1305 23.1 70.6088 19.7 73.4493 20C75.2754 20.2 77.203 19.8 78.9276 20.1C77.6088 21.6 75.7827 22.4 73.7537 22.2Z" fill="#F4B1A4" fill-opacity="1.000000" fill-rule="nonzero"/>
		<path id="Vector" d="M51.8406 20.9C52.145 21.3 52.4493 21.7 52.3479 22.3C52.3479 22.7 51.7391 23.3 52.145 23.5L53.6667 21.7C53.2609 21.6 50.116 17.9 50.116 17.5L47.9856 18.6C48.087 19 48.7971 18.6 49.203 18.6C49.7102 18.6 50.116 19 50.5217 19.3C49.4059 20.2 46.6667 22.6 46.3623 22.6C46.2609 22.6 45.6522 22.2 45.6522 22.6C45.6522 22.8 46.2609 23.3 46.3623 23.4L47.7826 25.1C48.1885 24.9 47.6812 24.6 47.8842 24.3C47.9856 24.1 51.1305 21.6 51.8406 20.9ZM48.3914 16.4C48.6957 16.3 48.7971 16.7 49 16.4L47.3768 14.5C47.174 14.2 46.8696 13.9 46.8696 14.5C46.9711 14.9 42.8116 18.2 42.6088 18.3C42.3044 18.4 42.1014 18 41.8986 18.4C42.4059 19 42.8116 19.5 43.3188 20.1C43.5217 20.3 43.6233 20.5 43.8262 20.7C44.0291 20.9 43.9276 20.3 43.9276 20.3C43.8262 20 44.2319 19.7 44.5363 19.5C45.5508 18.5 48.087 16.4 48.3914 16.4ZM42.6088 15.8C41.4928 16.1 40.174 15.7 39.8696 14.5C39.4639 13.3 40.2754 12.1 41.1885 11.4C42.1014 10.7 43.5217 10.8 44.0291 11.9C44.2319 12.4 44.1305 13 43.9276 13.5C43.8262 13.8 43.5217 14.1 43.9276 14.3C44.5363 13.6 45.0436 12.9 45.6522 12.2C44.942 11.8 44.6377 11.1 44.1305 10.5C43.5217 9.79999 42.8116 9.09999 41.7971 8.99999C39.8696 8.69999 38.145 10.7 37.942 12.4C37.8406 13.3 38.145 14.2 38.7537 15C39.2609 15.6 39.9711 16.1 40.3768 16.8C40.5797 16.9 42.203 16.1 42.5073 16C42.7102 16 42.6088 15.9 42.6088 15.8ZM68.4783 39.4C67.7682 38.9 65.8406 36.4 65.4348 35.9L65.2319 35.6L65.0291 35.7C64.9276 35.8 65.1305 36.1 65.0291 36.3C64.5217 37.1 61.2754 39.5 61.0725 39.7C60.6667 39.9 60.2609 39.6 60.058 39.9C60.5653 40.5 61.8842 42.2 62.087 42.2C62.3914 42.2 62.1885 41.7 62.1885 41.6C62.2899 41.4 63.9131 40 64.5217 39.5C64.7247 39.3 64.9276 39.8 65.1305 40C65.3334 40.3 65.4348 40.7 65.3334 41C65.2319 41.2 64.8262 41.6 65.1305 41.8C65.5363 41.3 66.6522 40 66.8551 39.8C67.058 39.6 66.4493 39.8 66.5508 39.7C66.3479 39.8 66.0436 39.9 65.8406 39.7C65.7391 39.7 65.1305 39 65.2319 38.9C65.5363 38.7 65.8406 38.3 66.2465 38.2C66.8551 38.1 67.2609 39.2 67.3623 39.6C67.4639 40 67.4639 40.4 67.2609 40.7C67.1594 41 66.9565 41.2 67.2609 41.3L68.6812 39.4C68.6812 39.5 68.5797 39.5 68.4783 39.4ZM59.145 30.5C58.4348 30.5 57.7247 30.8 57.116 31.3C55.6957 32.5 55.4928 34.6 56.6088 36.1C57.9276 37.8 60.058 38 61.7827 36.8C63.203 35.6 63.4059 33.5 62.2899 32C61.4783 31 60.2609 30.5 59.145 30.5ZM60.3623 31.9C61.2754 31.8 61.8842 32.7 61.4783 33.7C61.0725 34.7 60.058 35.7 59.0436 36.1C57.8262 36.6 57.0145 35.6 57.5217 34.4C57.9276 33.4 58.942 32.4 59.9565 32C60.058 32 60.1594 31.9 60.3623 31.9ZM57.5217 27.3C57.8262 27.3 58.1305 27.7 58.3334 27.3L56.9131 25.6C56.5073 25.8 56.9131 26 56.8116 26.2C56.6088 26.5 55.087 26.7 54.6812 26.8C54.7827 26.4 55.2899 25.1 55.4928 25C55.8986 24.7 56.1014 25.3 56.3044 24.9L54.4783 22.8C54.2754 22.6 54.0725 22.1 53.8696 22.4C53.8696 22.4 53.8696 23.4 53.7682 23.5C53.6667 23.7 53.1594 25.9 52.5508 26.4C52.2465 26.7 51.0291 27.7 50.7247 27.8C50.4203 27.9 50.2174 27.4 49.9131 27.8L51.5363 29.7C51.6377 29.8 51.942 30.3 52.0436 30.3C52.3479 30.4 52.0436 29.7 52.145 29.6C52.2465 29.3 53.7682 27.8 54.4783 27.7C55.3914 27.5 56.5073 27.2 57.5217 27.3ZM82.0725 34C82.174 34.4 82.2754 34.9 82.174 35.3C82.0725 35.9 81.5653 37.2 80.7537 36.8C79.942 36.4 79.3334 35.7 78.6233 35.1C79.1305 34.5 79.6377 34 80.5508 34.3C80.7537 34.4 80.9565 34.3 80.7537 34.1C80.4493 33.9 78.7247 32.8 78.6233 32.9C78.4203 33.1 78.9276 33.5 78.7247 33.9C78.6233 34.2 78.3188 34.4 78.116 34.7C77.6088 34.3 76.8986 33.9 77.4059 33.2C77.8116 32.8 78.2174 32.4 78.8262 32.3C79.2319 32.2 80.0436 32.6 80.145 32.2C79.4348 31.9 78.7247 31.5 78.0145 31.2C78.116 31.7 75.7827 34.1 75.2754 34.7C75.174 34.8 74.8696 35.1 74.8696 35.2C74.8696 35.5 75.2754 35.3 75.2754 35.3C75.5797 35.2 79.7391 38.6 79.8406 38.9C79.942 39.1 79.7391 39.3 79.8406 39.4C79.8406 39.4 79.9421 39.5 80.0436 39.5C80.3479 39.2 82.9856 35.6 83.5942 35.5C83.087 34.7 82.5797 33.9 82.0725 33.1C81.6667 33.3 81.9711 33.8 82.0725 34ZM78.0145 38.4C76.6957 37.5 74.3623 39.2 73.9565 39.4C73.2465 39.7 72.7391 39 73.145 38.4C73.4493 37.9 74.058 37.6 74.6667 37.6C74.8696 37.6 75.5797 37.7 75.5797 37.6C75.6812 37.5 75.6812 37.5 75.5797 37.4C74.9711 37 74.4639 36.6 73.8551 36.3C73.7537 37 72.9421 37.4 72.5363 37.9C72.0291 38.5 71.5217 39.2 71.5217 39.9C71.5217 40.6 71.9276 41.3 72.6377 41.6C73.3479 42 74.1594 41.7 74.8696 41.3C75.2754 41 75.6812 40.7 76.087 40.5C76.6957 40.2 77.6088 40.5 77.4059 41.3C77.203 42 76.4928 42.6 75.7827 42.8C75.3768 42.9 74.9711 42.9 74.5653 42.7C74.2609 42.6 73.9565 42.2 73.7537 42.6L76.087 44.2C76.1885 43.7 76.3914 43.5 76.7971 43.2C77.3044 42.8 77.7102 42.3 78.116 41.8C78.9276 40.9 79.2319 39.3 78.0145 38.4ZM95.8696 10.3L94.9565 11.3L94.145 12.3C93.942 12.5 93.8406 12.6 94.145 12.8C94.6522 12.5 97.6957 17.6 97.4928 18.3C96.9856 18.5 92.9276 15 92.8262 14.8C92.8262 14.7 93.0291 14.1 92.7247 14.2C92.6233 14.2 92.2174 14.8 92.116 14.9L91.5073 15.6C91.7102 15.9 91.8116 15.6 92.116 15.6C92.3188 15.7 93.3334 16.5 93.6377 16.7C93.1305 16.7 91.9131 16.8 91.7102 16.8C91.1014 16.9 91.4059 16.4 91 16.2L89.4783 18L88.5653 19C88.5653 19 88.5653 19 88.5653 19.1C88.7682 19.3 88.6667 19.2 88.9711 19.1C89.2754 19 93.3334 22.3 93.4348 22.5C93.6377 22.8 93.3334 23.1 93.7391 23.3L94.9565 21.9C95.058 21.8 95.058 21.8 94.9565 21.8C94.6522 21.6 94.6522 21.9 94.2465 21.9C93.942 21.8 91.3044 19.7 90.3914 18.9L95.7682 18.7C95.9711 18.7 96.4783 19.3 96.4783 19.5C96.3768 19.7 96.174 19.9 96.4783 20C96.7826 19.6 97.087 19.3 97.3914 18.9L97.4928 18.7C97.5942 18.7 97.5942 18.6 97.5942 18.5L97.6957 18.4C98 18.1 98.9131 17.1 98.8116 17C98.5073 16.7 98.4059 17.3 98 17C97.7971 16.8 97.1885 15.8 97.087 15.6C96.8842 15.3 97.4928 15 97.6957 14.9C98.203 14.6 99.8262 14.1 100.029 15.1C100.029 15.3 99.8262 15.5 99.9276 15.6C99.9276 15.6 100.029 15.8 100.13 15.7L102.261 13.1C102.159 13 102.159 13 102.058 12.9C101.551 13.4 96.4783 11.4 96.174 11.1C96.0725 10.9 96.0725 10.3 95.8696 10.3ZM95.6667 12.9C96.4783 13.2 97.1885 13.5 98 13.9C97.7971 14 97.5942 14.1 97.3914 14.2C97.1885 14.3 96.9856 14.5 96.7827 14.7L95.6667 12.9ZM88.9711 20.6C87.8551 20.5 86.7391 21 85.9276 21.9C84.7102 23.4 84.8116 25.6 86.3334 26.8C87.8551 28 90.087 27.7 91.3044 26.3C92.5217 24.8 92.4203 22.6 90.8986 21.4C90.3914 21 89.6812 20.7 88.9711 20.6ZM87.5508 22.2C88.1594 22.2 88.8696 22.6 89.2754 22.9C90.087 23.4 91.5073 24.6 90.7971 25.6C90.7971 25.5 90.8986 25.5 90.6957 25.7C89.8842 26.5 88.4639 25.8 87.7537 25.2C87.0436 24.7 85.7247 23.5 86.5363 22.5C86.8406 22.3 87.145 22.2 87.5508 22.2ZM84.4059 26.5C83.1885 26.4 81.9711 27 81.058 28.1C80.4493 28.9 79.7391 29.6 79.1305 30.4C79.3334 30.7 79.6377 30.3 79.9421 30.5C80.2465 30.7 84.1014 33.8 84.1014 34C84.2029 34.3 83.8986 34.4 84.2029 34.6C84.3044 34.7 87.145 31.2 87.4493 30.6C87.8551 29.5 87.5508 28.2 86.6377 27.4C85.8262 26.8 85.116 26.5 84.4059 26.5ZM83.2899 28.1C83.3914 28.1 83.4928 28.1 83.5942 28.1C85.0145 28.5 87.0436 30.2 85.7247 31.7C85.5217 31.9 85.7247 31.7 85.3188 32.1C85.116 32.3 81.058 29.1 81.2609 28.9C81.6667 28.4 82.5797 28 83.2899 28.1Z" fill="#FFFFFF" fill-opacity="1.000000" fill-rule="nonzero"/>
	</g>
</svg>
